<svg xmlns="http://www.w3.org/2000/svg" viewBox="0 0 25 17" width="25" height="17">
	<style>
		tspan { white-space:pre }
		.shp0 { opacity: 0.702;fill: #ffffff } 
	</style>
	<path id="Rectangle 18 copy 6" class="shp0" d="M2 8L23 8L23 9L2 9L2 8ZM2 9L23 9L23 10L2 10L2 9ZM15.95 1.91L23.39 8.6L22.72 9.34L15.28 2.66L15.95 1.91ZM15.28 2.66L22.72 9.34L22.05 10.08L14.61 3.4L15.28 2.66ZM21.63 8L14 14.54L14.69 15.27L22.31 8.73L21.63 8ZM22.31 8.73L14.69 15.27L15.37 16L23 9.45L22.31 8.73ZM2 8L23 8L23 9L2 9L2 8ZM2 9L23 9L23 10L2 10L2 9ZM15.95 1.91L23.39 8.6L22.72 9.34L15.28 2.66L15.95 1.91ZM15.28 2.66L22.72 9.34L22.05 10.08L14.61 3.4L15.28 2.66ZM21.63 8L14 14.54L14.69 15.27L22.31 8.73L21.63 8ZM22.31 8.73L14.69 15.27L15.37 16L23 9.45L22.31 8.73Z" />
</svg>